<svg xmlns="http://www.w3.org/2000/svg" viewBox="0 0 95 117.07"><defs><style>.cls-1{fill:none;stroke:#000;stroke-miterlimit:10;stroke-width:4px;}</style></defs><title>icon-process</title><g id="Layer_2" data-name="Layer 2"><g id="Layer_1-2" data-name="Layer 1"><rect class="cls-1" x="2" y="2" width="91" height="113.07"/><circle class="cls-1" cx="27.51" cy="25.15" r="7"/><polyline class="cls-1" points="20.51 44.17 20.51 66.07 27.51 56.78 34.51 66.07 34.51 44.17"/><polygon class="cls-1" points="37.2 38.97 33.72 39.67 30.83 41.73 27.36 40.95 23.88 41.65 21.02 39.53 17.56 38.76 15.81 35.66 12.96 33.54 12.63 30.01 10.89 26.91 12.02 23.54 11.69 20.01 14.09 17.39 15.22 14.03 18.48 12.62 20.89 10 24.44 10.04 27.7 8.63 30.93 10.11 34.48 10.14 36.83 12.81 40.06 14.29 41.13 17.68 43.48 20.34 43.07 23.87 44.13 27.27 42.32 30.32 41.91 33.85 39.01 35.91 37.2 38.97"/><line class="cls-1" x1="44.18" y1="51.72" x2="80.25" y2="51.72"/><line class="cls-1" x1="44.27" y1="64.46" x2="80.34" y2="64.46"/><line class="cls-1" x1="13.58" y1="77.2" x2="80.34" y2="77.2"/><line class="cls-1" x1="13.58" y1="89.95" x2="80.34" y2="89.95"/><line class="cls-1" x1="13.58" y1="102.69" x2="80.34" y2="102.69"/></g></g></svg>