<?xml version="1.0" encoding="utf-8"?>
<!-- Generator: Adobe Illustrator 21.1.0, SVG Export Plug-In . SVG Version: 6.00 Build 0)  -->
<svg version="1.1" id="Layer_1" xmlns="http://www.w3.org/2000/svg" xmlns:xlink="http://www.w3.org/1999/xlink" x="0px" y="0px"
	 viewBox="0 0 728 618.1" style="enable-background:new 0 0 728 618.1;" xml:space="preserve">
<style type="text/css">
	.st0{fill:#00539F;}
	.st1{fill:#FFFFFF;}
</style>
<title>logo</title>
<g>
	<path class="st0" d="M463.1,571.5"/>
	<g>
		<path class="st1" d="M564.8,291.8c0,0-15.1-16.4-25.1-25.1L211.4,0c0,0,15.9,111.4,18.9,130.5c3,19.1,17.9,37.6,25.1,48.4
			l-37-28.6c0,0,25.4,137.6,27.7,150.5c2.3,12.9,18.8,33.6,23.4,38.6l-238.6-54c0,0,64.2,94.4,73.7,107.4s17.8,28,51.8,35.9
			l144,33.5c0,0,20.4,3.9,45.8,23.6l76.8,60.6c0,0,20.8,15.5,43.7,15.5c0,0,50.3,0.4,55.8-0.6c0,0,6.7-0.5,7.7-2.3s2.5-5.8-6.8-15.7
			S470,492.3,470,492.3s23.6-3.8,47.3,7.2c24.3,11.3,22.9,30.4,22.9,30.4c32-7.2,16.5-36.9,15-39.1c-1.1-1.7-2.7-3.1-4.5-4
			l-22.2-7.5c0,0-1.3-10.8-1.7-13.3c-0.4-2.7-0.4-5.5,0.1-8.1l28.1,20.2c0,0,7-9.1,0.9-21.9s-17.5-31-28.3-39.1
			c0.1-0.7,0.2-1.3,0.3-2c0.3-1.4,17.7,2.6,27.5-5c0,0,26.7-19.1,29-51.7C584.3,358.3,588,324.1,564.8,291.8z M229.8,49.5l-3.7-24.8
			l89,71.4l4.6,27.1L229.8,49.5z M234,65.1l89,71.4l4.6,27.1l-89.9-73.7L234,65.1z M241.2,103.8l89,71.4l4.6,27.1l-89.9-73.7
			L241.2,103.8z M248.7,141.6l89,74.4l4.6,27.3c0,0-37.8-29.2-70.5-62.6C260.8,169.6,248.7,141.6,248.7,141.6z M236.9,174.9
			l109,89.2l4.6,27.1l-109.9-91.5L236.9,174.9z M245,215l109,89.2l4.6,27.1l-109.9-91.5L245,215z M263.2,308.5
			c-2.5-5.3-2.9-10.8-3.2-15.8l70.6,60c-15.8-2.9-29.1-3.1-38.1-9.9C279.9,333.1,268.4,319.6,263.2,308.5z M84.1,337.1l218.2,48.5
			l12,18.9L96.9,356.3L84.1,337.1z M116.1,384.6l-12.7-19.3l218.2,48.5l12.1,18.9L116.1,384.6z M157.8,415.9
			c-29.6-6.9-35.1-23.1-35.1-23.1L340.2,441l12,18.9C352.2,459.9,187.4,422.8,157.8,415.9z M350.9,357.9L255,278l-3.7-24.8
			l109.2,89.4l3.5,18.2L350.9,357.9z"/>
		<path class="st1" d="M549,571.5l-96.3,0.5c-5.4,1.3-9.2,6.3-9,11.8c1.5,24,35,34.3,35,34.3c-16.4-18.7-3.6-24.8-1.7-25.1
			c2.9-0.5,66-0.7,69.3-0.1c4.2,0.8,20.9,6.4,15,23.7c0,0,13.2-8.6,14.4-19C578.4,575.2,553.3,572.1,549,571.5z"/>
	</g>
</g>
</svg>
