<svg xmlns="http://www.w3.org/2000/svg" viewBox="0 0 727.97 618.12"><defs><style>.cls-1{opacity:0.16;}.cls-2,.cls-5{fill:#00539f;}.cls-2,.cls-3{fill-rule:evenodd;}.cls-3,.cls-4{fill:#fff;}</style></defs><title>logo</title><g id="Layer_2" data-name="Layer 2"><g id="Layer_1-2" data-name="Layer 1"><g class="cls-1"><path class="cls-2" d="M539.75,266.72c10,8.69,25.08,25.08,25.08,25.08,23.22,32.34,19.49,66.54,19.49,66.54-2.28,32.54-29,51.65-29,51.65-9.82,7.59-27.19,3.58-27.52,5a11.92,11.92,0,0,0-.33,2c10.79,8.1,22.26,26.31,28.33,39.12s-.91,21.92-.91,21.92L526.77,457.8a27.77,27.77,0,0,0-.06,8.15c.47,2.5,1.72,13.34,1.72,13.34l22.22,7.52a11.36,11.36,0,0,1,4.51,4c1.45,2.21,17,31.92-15,39.1,0,0,1.44-19.1-22.89-30.41-23.73-11-47.29-7.19-47.29-7.19s43.95,40.94,53.3,50.8,7.85,13.87,6.85,15.71-7.68,2.34-7.68,2.34c-5.52,1-55.85.64-55.85.64-22.89,0-43.67-15.5-43.67-15.5l-76.77-60.57c-25.36-19.72-45.78-23.6-45.78-23.6l-144-33.46c-34-7.93-42.26-22.89-51.77-35.92S30.92,285.35,30.92,285.35L269.47,339.4c-4.62-4.95-21.12-25.74-23.43-38.6s-27.72-150.47-27.72-150.47l37,28.55c-7.17-10.75-22.1-29.27-25.08-48.38S211.38,0,211.38,0Z"/><path class="cls-2" d="M549,571.48c4.33.64,29.43,3.7,26.76,26.12-1.24,10.41-14.4,19-14.4,19,5.86-17.33-10.83-22.94-15-23.7-3.33-.6-66.39-.38-69.32.13-1.91.33-14.78,6.37,1.66,25.1,0,0-33.51-10.32-35-34.28A11.88,11.88,0,0,1,452.75,572Z"/></g><path class="cls-2" d="M463.15,571.47"/><polygon class="cls-3" points="226.13 24.75 229.83 49.55 319.78 123.27 315.14 96.15 226.13 24.75"/><polygon class="cls-3" points="234.01 65.08 237.72 89.89 327.66 163.6 323.02 136.48 234.01 65.08"/><polygon class="cls-3" points="241.19 103.8 244.9 128.6 334.84 202.32 330.21 175.2 241.19 103.8"/><polygon class="cls-3" points="236.87 174.89 240.58 199.69 350.45 291.18 345.82 264.06 236.87 174.89"/><polygon class="cls-3" points="245.04 215 248.74 239.8 358.62 331.28 353.99 304.17 245.04 215"/><polygon class="cls-3" points="251.28 253.18 254.99 277.99 350.88 357.86 363.98 360.82 360.47 342.59 251.28 253.18"/><path class="cls-3" d="M248.69,141.56s12.14,28,23.1,39.21c32.68,33.38,70.47,62.58,70.47,62.58L337.67,216Z"/><path class="cls-3" d="M292.53,342.72c-12.62-9.64-24.16-23.08-29.36-34.25-2.47-5.3-2.88-10.85-3.22-15.84l70.64,60C314.74,349.78,301.51,349.57,292.53,342.72Z"/><polygon class="cls-3" points="314.38 404.53 96.86 356.35 84.13 337.07 302.34 385.6 314.38 404.53"/><polygon class="cls-3" points="333.66 432.75 116.14 384.57 103.4 365.3 321.61 413.82 333.66 432.75"/><path class="cls-3" d="M352.24,459.94,340.2,441,122.68,392.83s5.51,16.17,35.11,23.06S352.24,459.94,352.24,459.94Z"/><path class="cls-4" d="M57.91,259H119.2l-9.28,25.34H65.1l-6.6,21.91q1.57-.14,3.62-.21t6.45-.07h34.29l-6.76,20.48H51.88L39,365.77H3.44l30.63-94.09S38.07,259,57.91,259Z"/><path class="cls-5" d="M40.8,368.27H0l31.69-97.36c.18-.57,4.79-14.46,26.21-14.46h64.87L111.67,286.8H67l-5,16.7H62c1.42,0,3.62-.07,6.54-.07H106.3L97.89,328.9H53.7Zm-33.91-5H37.18l12.9-39.38h44.2l5.11-15.48H68.56c-2.86,0-5,0-6.36.07s-2.48.12-3.48.21L55,309l8.21-27.23h44.93l7.45-20.34H57.91c-17.59,0-21.31,10.55-21.46,11Z"/><path class="cls-4" d="M142.57,343.15l-14.16,22.62h-37l56.93-86.48a58.09,58.09,0,0,1,9.52-11.38,43,43,0,0,1,8.57-6.09,23.15,23.15,0,0,1,6.76-2.43,31.16,31.16,0,0,1,3.93-.43h34V365.77H178.59V343.15Zm36.65-19.33V283.58l-24.69,40.23Z"/><path class="cls-5" d="M213.64,368.27H176.09V345.65H144L129.8,368.27h-43l59.49-90.36a60.82,60.82,0,0,1,10-11.89,45.59,45.59,0,0,1,9.09-6.43,25.31,25.31,0,0,1,7.53-2.68,32.24,32.24,0,0,1,4.31-.46h36.47Zm-32.56-5h27.56V261.45H177.17a27.9,27.9,0,0,0-3.56.4,20.88,20.88,0,0,0-6,2.19,40.69,40.69,0,0,0-8.06,5.74,55.93,55.93,0,0,0-9.09,10.89l-54.37,82.6H127l14.16-22.62h39.9Zm.63-37H150.05l31.66-51.59Zm-22.73-5h17.73V292.44Z"/><path class="cls-4" d="M269.27,337.28a7.83,7.83,0,0,0,4.25,2.72,129.42,129.42,0,0,0,26.42,1A221.47,221.47,0,0,0,326,337.71l-8.34,26.49a264,264,0,0,1-33.5,3.15A203.43,203.43,0,0,1,252,365.63q-13.84-1.57-19-11t-.39-25.7q.15-.86.47-2t1.1-3.65q.79-2.5,2.12-6.94t3.77-12q2.44-7.52,6.21-18.61T255.43,259H290.5l-19.82,59.71q-.79,3.73-1.81,7.16a35.43,35.43,0,0,0-1.34,7.16Q267.22,335,269.27,337.28Z"/><path class="cls-5" d="M278.91,369.92a207.87,207.87,0,0,1-27.28-1.81c-10-1.14-17-5.25-20.82-12.24-3.71-6.8-3.92-16-.63-27.47.12-.62.28-1.31.5-2.1s.58-2,1.12-3.73,1.23-4,2.12-6.92,2.18-7,3.79-12,3.65-11.07,6.22-18.65q3.78-11.1,9.12-26.85l.58-1.7H294L273.1,319.32c-.53,2.5-1.15,4.92-1.83,7.22a33.06,33.06,0,0,0-1.24,6.66l0,.18a3.27,3.27,0,0,0,1.12,2.24h0a5.58,5.58,0,0,0,2.8,1.92,127.46,127.46,0,0,0,25.84,1,219.88,219.88,0,0,0,25.81-3.26l4.09-.76-10.05,31.94-1.53.24a267.73,267.73,0,0,1-33.82,3.18Q281.6,369.92,278.91,369.92ZM257.22,261.45q-5,14.66-8.55,25.15c-2.57,7.55-4.6,13.63-6.2,18.58s-2.87,8.94-3.76,11.91-1.61,5.3-2.13,7-.87,2.83-1.07,3.56-.33,1.3-.42,1.79l-.06.25c-2.94,10.18-2.88,18.19.19,23.81s8.59,8.71,17,9.67a201.58,201.58,0,0,0,31.89,1.7A261.1,261.1,0,0,0,315.79,362l6.63-21.08a224.19,224.19,0,0,1-22.32,2.61,132.44,132.44,0,0,1-26.93-1l-.13,0a10.28,10.28,0,0,1-5.63-3.51c-1.85-2.07-2.64-4.17-2.35-6.25a38.06,38.06,0,0,1,1.42-7.58c.66-2.21,1.25-4.55,1.76-7l.07-.27L287,261.45Z"/><path class="cls-4" d="M378.92,337.71a7.65,7.65,0,0,0,4,2,195.41,195.41,0,0,0,26.34,1.65,152.93,152.93,0,0,0,26-2.36L427,365.48a274.15,274.15,0,0,1-65.57,1.29,22.18,22.18,0,0,1-12-4.44,23.88,23.88,0,0,1-7-9,34.41,34.41,0,0,1-2.83-11.46,42.09,42.09,0,0,1,.63-11.6q1.26-6,3.15-13.75a146.4,146.4,0,0,1,4.8-15.68,133.2,133.2,0,0,1,6.84-15.54,62.72,62.72,0,0,1,9.36-13.53,44,44,0,0,1,12.34-9.52,33.75,33.75,0,0,1,15.73-3.58h69.51l-8.49,25.63h-52a8.46,8.46,0,0,0-4.4,1.22,8.75,8.75,0,0,0-3.15,3.08,109.58,109.58,0,0,0-10.7,22,107.86,107.86,0,0,0-5.5,23.55A3.9,3.9,0,0,0,378.92,337.71Z"/><path class="cls-5" d="M388.8,370.64q-13.85,0-27.66-1.38a24.72,24.72,0,0,1-13.35-5,26.47,26.47,0,0,1-7.72-10,37.07,37.07,0,0,1-3-12.28,44.78,44.78,0,0,1,.67-12.29c.84-4,1.91-8.68,3.17-13.84A149.53,149.53,0,0,1,345.75,300a136.38,136.38,0,0,1,7-15.83,65.5,65.5,0,0,1,9.73-14.07,46.65,46.65,0,0,1,13-10.06,36.38,36.38,0,0,1,16.88-3.86h73L455.19,286.8H401.34a6,6,0,0,0-3.12.86,6.23,6.23,0,0,0-2.27,2.2,107.84,107.84,0,0,0-10.49,21.55,105.88,105.88,0,0,0-5.38,23,1.46,1.46,0,0,0,.58,1.48h0a5.13,5.13,0,0,0,2.67,1.34,193.46,193.46,0,0,0,25.94,1.62,151.26,151.26,0,0,0,25.6-2.32l4.06-.72-10,31.93-1.56.22A277.84,277.84,0,0,1,388.8,370.64Zm3.57-109.47a31.45,31.45,0,0,0-14.58,3.3,41.67,41.67,0,0,0-11.64,9,60.53,60.53,0,0,0-9,13,131.4,131.4,0,0,0-6.71,15.25,144.57,144.57,0,0,0-4.72,15.41c-1.25,5.11-2.3,9.71-3.13,13.66a39.76,39.76,0,0,0-.58,10.9,32.08,32.08,0,0,0,2.62,10.63,21.52,21.52,0,0,0,6.28,8.09,19.86,19.86,0,0,0,10.71,3.9,272.89,272.89,0,0,0,63.42-1.06l6.64-21.1a156.32,156.32,0,0,1-22.4,1.74,199.32,199.32,0,0,1-26.68-1.67l-.12,0a10.15,10.15,0,0,1-5.29-2.66,6.35,6.35,0,0,1-2.08-5.78,110.47,110.47,0,0,1,5.62-24,112.56,112.56,0,0,1,10.94-22.48,11.18,11.18,0,0,1,4-3.89,11,11,0,0,1,5.68-1.57h50.24l6.84-20.63Z"/><path class="cls-4" d="M571.49,314.44a214.69,214.69,0,0,1-12.11,31.29,32.52,32.52,0,0,1-11.64,12.89,42.61,42.61,0,0,1-16.83,6.44q-7.4,1.14-14.71,1.72t-14.71.57q-5.35,0-11.17-.21A91.64,91.64,0,0,1,478.85,366a59.36,59.36,0,0,1-10.62-2.72,27.41,27.41,0,0,1-8.57-4.87,19.13,19.13,0,0,1-5.43-7.59,23.23,23.23,0,0,1-1.18-11,113.93,113.93,0,0,1,2.75-15.39q2-7.95,4.56-15.82T466,293.25q3-7.52,6-14.1a24.82,24.82,0,0,1,5.27-7.3,35.87,35.87,0,0,1,10.22-6.8,70.57,70.57,0,0,1,16.44-5,126.83,126.83,0,0,1,23.91-1.93q6.92,0,15,.29a73,73,0,0,1,15.41,2.15,38,38,0,0,1,13,5.94,20.4,20.4,0,0,1,7.71,11.81v3.87A257.07,257.07,0,0,1,571.49,314.44ZM535.16,313a195.61,195.61,0,0,0,6.92-24.41q.79-3.29-.79-5.23A9.24,9.24,0,0,0,537,280.5a26,26,0,0,0-6.05-1.22q-3.3-.28-5.66-.29-2.68,0-5.82.29a28.37,28.37,0,0,0-6.05,1.22,19.57,19.57,0,0,0-5.27,2.58,9.58,9.58,0,0,0-3.46,4.37q-4.72,11.17-8.81,23.05a243,243,0,0,0-6.92,24.05,8.85,8.85,0,0,0-.08,5.08,8.09,8.09,0,0,0,2.44,3.72,10.88,10.88,0,0,0,4.4,2.22,16.5,16.5,0,0,0,5.82.43q3,0,6.84-.22a40.94,40.94,0,0,0,7.39-1.07,18.33,18.33,0,0,0,6.21-2.72,8.44,8.44,0,0,0,3.46-5.16Q530.91,325,535.16,313Z"/><path class="cls-5" d="M501.5,369.85c-3.56,0-7.35-.07-11.26-.22a94.43,94.43,0,0,1-11.79-1.18,62.07,62.07,0,0,1-11.06-2.84A30,30,0,0,1,458,360.3a21.69,21.69,0,0,1-6.12-8.56,25.79,25.79,0,0,1-1.35-12.13,117,117,0,0,1,2.81-15.75c1.32-5.34,2.88-10.73,4.62-16s3.63-10.51,5.63-15.53,4-9.79,6-14.21a27.36,27.36,0,0,1,5.77-8,38.48,38.48,0,0,1,10.93-7.3,73.33,73.33,0,0,1,17-5.2,129.86,129.86,0,0,1,24.38-2c4.58,0,9.67.1,15.11.29a75.86,75.86,0,0,1,15.94,2.22,40.63,40.63,0,0,1,13.82,6.34,22.93,22.93,0,0,1,8.66,13.2l.08.31,0,4.59a260.72,260.72,0,0,1-7.46,32.6,218.29,218.29,0,0,1-12.25,31.65,35.17,35.17,0,0,1-12.53,13.9,45.3,45.3,0,0,1-17.8,6.82c-5,.77-10,1.36-14.9,1.74S506.45,369.85,501.5,369.85ZM527.77,260.6a125,125,0,0,0-23.43,1.89,68.48,68.48,0,0,0-15.85,4.82,33.61,33.61,0,0,0-9.52,6.3,22.49,22.49,0,0,0-4.75,6.55c-2,4.38-4,9.09-5.94,14s-3.82,10.06-5.53,15.25-3.22,10.42-4.51,15.64a111.88,111.88,0,0,0-2.69,15.05,20.89,20.89,0,0,0,1,9.76,16.74,16.74,0,0,0,4.73,6.62,25,25,0,0,0,7.8,4.42,57.22,57.22,0,0,0,10.17,2.61,89.68,89.68,0,0,0,11.17,1.11c3.85.14,7.57.21,11.07.21,4.82,0,9.7-.19,14.51-.56s9.65-.95,14.52-1.7a40.3,40.3,0,0,0,15.85-6.07,30.2,30.2,0,0,0,10.76-11.91,213.12,213.12,0,0,0,12-30.88h0a255.73,255.73,0,0,0,7.29-31.78v-3.33a17.7,17.7,0,0,0-6.67-10.12A35.64,35.64,0,0,0,557.58,263a70.78,70.78,0,0,0-14.88-2.07C537.31,260.69,532.29,260.6,527.77,260.6Zm-28,88A18.14,18.14,0,0,1,495,348a13.38,13.38,0,0,1-5.4-2.75,10.6,10.6,0,0,1-3.18-4.85,11.3,11.3,0,0,1,0-6.46,246.6,246.6,0,0,1,7-24.25c2.73-7.93,5.71-15.74,8.87-23.21a12,12,0,0,1,4.33-5.44,22.13,22.13,0,0,1,5.94-2.91,31,31,0,0,1,6.59-1.33c2.17-.2,4.21-.3,6-.3,1.63,0,3.6.1,5.88.3a28.62,28.62,0,0,1,6.64,1.34,11.74,11.74,0,0,1,5.46,3.65c1.56,1.92,2,4.41,1.28,7.38a198.76,198.76,0,0,1-7,24.67h0c-2.82,7.93-6.09,16-9.74,23.84a10.88,10.88,0,0,1-4.4,6.37,20.9,20.9,0,0,1-7.05,3.1,43.56,43.56,0,0,1-7.84,1.14c-2.58.14-4.89.22-6.87.22Q500.67,348.59,499.75,348.59Zm25.5-67.09c-1.69,0-3.57.09-5.59.28a26,26,0,0,0-5.52,1.11,17.17,17.17,0,0,0-4.6,2.25,7.06,7.06,0,0,0-2.57,3.25c-3.13,7.41-6.07,15.11-8.76,22.93a241.57,241.57,0,0,0-6.85,23.81l0,.1a6.48,6.48,0,0,0-.11,3.66,5.6,5.6,0,0,0,1.7,2.6,8.48,8.48,0,0,0,3.41,1.69,14.18,14.18,0,0,0,4.95.36h.23c1.91,0,4.17-.07,6.7-.21a38.6,38.6,0,0,0,6.94-1,15.94,15.94,0,0,0,5.38-2.34,6,6,0,0,0,2.46-3.68l.16-.47C526.76,328,530,320,532.8,312.17h0a193.92,193.92,0,0,0,6.83-24.1c.51-2.15-.09-2.88-.28-3.13a6.74,6.74,0,0,0-3.19-2.07,23.6,23.6,0,0,0-5.47-1.09C528.57,281.59,526.73,281.5,525.25,281.5Z"/><path class="cls-4" d="M670.1,321l20.76-61.86h33.66L689.44,365.77H647.6L631.09,291.6l-24.54,74.17H571.8L607,259.1h35.23a21.11,21.11,0,0,1,5.66.79,19.13,19.13,0,0,1,5.19,2.29,17,17,0,0,1,4,3.51,11.36,11.36,0,0,1,2.28,4.58Z"/><path class="cls-5" d="M691.25,368.27H645.6l-15-67.28-22.26,67.28h-40L605.22,256.6h37a23.71,23.71,0,0,1,6.33.88,21.72,21.72,0,0,1,5.87,2.59,19.59,19.59,0,0,1,4.59,4,13.91,13.91,0,0,1,2.78,5.58l8.82,41.78,18.41-54.86H728Zm-41.64-5h38L721.06,261.6h-28.4l-23.11,68.85L657,270.78a8.74,8.74,0,0,0-1.76-3.51,14.6,14.6,0,0,0-3.42-3,16.73,16.73,0,0,0-4.52-2,18.72,18.72,0,0,0-5-.7H608.84L575.26,363.27h29.49l26.81-81.06Z"/><path class="cls-4" d="M55.23,255.65h61.29L107.25,281H62.42L55.82,302.9q1.57-.14,3.62-.21t6.45-.07h34.29l-6.76,20.48H49.21l-12.9,39.37H.77L31.4,268.38S35.4,255.65,55.23,255.65Z"/><path class="cls-5" d="M36.68,363H.08l30.84-94.74c0-.13,4.34-13.08,24.31-13.08h62l-9.65,26.34H62.8l-6.29,20.85c.87-.07,1.85-.12,2.91-.16,1.4,0,3.58-.07,6.47-.07h35l-7.09,21.48H49.57ZM1.46,362H36l12.9-39.37H93l6.43-19.48H65.88c-2.88,0-5,0-6.43.07s-2.56.12-3.59.21l-.74.07,6.93-23H106.9l8.91-24.34H55.23c-19.2,0-23.32,12.26-23.36,12.38Z"/><path class="cls-4" d="M139.9,339.84l-14.15,22.62h-37L145.72,276a58.06,58.06,0,0,1,9.52-11.38,43,43,0,0,1,8.57-6.09,23.14,23.14,0,0,1,6.76-2.43,31.06,31.06,0,0,1,3.93-.43h34V362.47H175.91V339.84Zm36.65-19.33V280.28l-24.69,40.24Z"/><path class="cls-5" d="M209,363H175.41V340.34H140.17L126,363H87.86l57.44-87.26a58.82,58.82,0,0,1,9.6-11.48,43.66,43.66,0,0,1,8.67-6.16,23.74,23.74,0,0,1,6.92-2.48,31.12,31.12,0,0,1,4-.44H209Zm-32.56-1H208V256.15H174.5a30.87,30.87,0,0,0-3.86.42A22.77,22.77,0,0,0,164,259a42.72,42.72,0,0,0-8.47,6,57.85,57.85,0,0,0-9.43,11.29L89.71,362h35.75l14.15-22.62h36.79Zm.63-41H151L177,278.5Zm-24.3-1H176V282Z"/><path class="cls-4" d="M266.6,334a7.84,7.84,0,0,0,4.25,2.72,129.58,129.58,0,0,0,26.42,1,221.92,221.92,0,0,0,26.11-3.29L315,360.89a264,264,0,0,1-33.5,3.15,203.44,203.44,0,0,1-32.24-1.72q-13.84-1.57-19-11t-.39-25.7q.15-.86.47-2t1.1-3.65q.79-2.5,2.12-6.94t3.77-12q2.44-7.52,6.21-18.61l9.12-26.85h35.07L268,315.36q-.79,3.73-1.81,7.16a35.39,35.39,0,0,0-1.34,7.16Q264.55,331.68,266.6,334Z"/><path class="cls-5" d="M276.23,364.61a206.06,206.06,0,0,1-27-1.79c-9.35-1.06-15.85-4.84-19.33-11.21s-3.6-15.12-.43-26.08c.09-.53.25-1.22.47-2s.58-2,1.11-3.67,1.23-4,2.12-6.94,2.16-7,3.78-12,3.64-11,6.22-18.62l9.12-26.85.12-.34h36.12l-20,60.37c-.51,2.44-1.13,4.86-1.8,7.14a35,35,0,0,0-1.32,7.06c-.19,1.21.35,2.52,1.6,3.92h0a7.4,7.4,0,0,0,4,2.56,129.7,129.7,0,0,0,26.29,1,222.36,222.36,0,0,0,26-3.29l.82-.15-8.68,27.58-.31,0a265.75,265.75,0,0,1-33.56,3.16Q278.9,364.61,276.23,364.61ZM253.11,256.15l-9,26.51c-2.58,7.58-4.61,13.66-6.21,18.61s-2.89,9-3.77,11.95-1.6,5.28-2.13,7-.89,2.88-1.1,3.63-.36,1.41-.46,2c-3.11,10.75-3,19.27.34,25.38s9.56,9.67,18.57,10.7a203.43,203.43,0,0,0,32.17,1.71,264.3,264.3,0,0,0,33.13-3.1l8-25.4a223.37,223.37,0,0,1-25.35,3.15,130.63,130.63,0,0,1-26.52-1,8.36,8.36,0,0,1-4.55-2.88c-1.46-1.64-2.09-3.22-1.85-4.71a35.83,35.83,0,0,1,1.35-7.22c.67-2.26,1.28-4.65,1.8-7.12l19.61-59.11Z"/><path class="cls-4" d="M376.25,334.4a7.65,7.65,0,0,0,4,2,195.43,195.43,0,0,0,26.34,1.65,152.93,152.93,0,0,0,26-2.36l-8.33,26.49a274.17,274.17,0,0,1-65.58,1.29,22.18,22.18,0,0,1-12-4.44,23.87,23.87,0,0,1-7-9,34.39,34.39,0,0,1-2.83-11.46,42.11,42.11,0,0,1,.63-11.6q1.26-6,3.15-13.75a146.22,146.22,0,0,1,4.8-15.68A133.37,133.37,0,0,1,352.27,282a62.64,62.64,0,0,1,9.36-13.53A44.06,44.06,0,0,1,374,258.94a33.74,33.74,0,0,1,15.73-3.58h69.51L450.71,281h-52a8.47,8.47,0,0,0-4.4,1.22,8.77,8.77,0,0,0-3.15,3.08,109.58,109.58,0,0,0-10.69,22,107.88,107.88,0,0,0-5.5,23.56A3.9,3.9,0,0,0,376.25,334.4Z"/><path class="cls-5" d="M386.13,365.34q-13.75,0-27.46-1.37a22.76,22.76,0,0,1-12.3-4.55,24.48,24.48,0,0,1-7.14-9.21,35,35,0,0,1-2.87-11.62,42.82,42.82,0,0,1,.64-11.74c.83-4,1.89-8.6,3.15-13.76A147.37,147.37,0,0,1,345,297.36a134.37,134.37,0,0,1,6.87-15.59,63.44,63.44,0,0,1,9.43-13.64,44.77,44.77,0,0,1,12.48-9.63,34.39,34.39,0,0,1,16-3.64h70.2l-8.83,26.63H398.67a8,8,0,0,0-4.15,1.15,8.31,8.31,0,0,0-3,2.9,109.63,109.63,0,0,0-10.65,21.89,107.88,107.88,0,0,0-5.48,23.45A3.42,3.42,0,0,0,376.6,334h0a7.2,7.2,0,0,0,3.75,1.87,195,195,0,0,0,26.25,1.64,153.21,153.21,0,0,0,25.94-2.35l.81-.14-8.67,27.58-.31,0A275.82,275.82,0,0,1,386.13,365.34Zm3.57-109.48a33.4,33.4,0,0,0-15.5,3.52A43.77,43.77,0,0,0,362,268.8a62.43,62.43,0,0,0-9.28,13.42,133.5,133.5,0,0,0-6.82,15.48,146.36,146.36,0,0,0-4.78,15.63c-1.26,5.15-2.32,9.77-3.14,13.73a41.81,41.81,0,0,0-.62,11.46,34.06,34.06,0,0,0,2.79,11.29,23.5,23.5,0,0,0,6.85,8.83A21.8,21.8,0,0,0,358.77,363a274.86,274.86,0,0,0,65.15-1.24l8-25.4a154.11,154.11,0,0,1-25.29,2.23,196.44,196.44,0,0,1-26.41-1.65,8.2,8.2,0,0,1-4.29-2.14,4.4,4.4,0,0,1-1.48-4A108.82,108.82,0,0,1,380,307.1,110.58,110.58,0,0,1,390.69,285a9.29,9.29,0,0,1,3.31-3.24,9,9,0,0,1,4.66-1.29h51.68l8.16-24.63Z"/><path class="cls-4" d="M568.82,311.13a215.15,215.15,0,0,1-12.11,31.29,32.54,32.54,0,0,1-11.64,12.89,42.64,42.64,0,0,1-16.83,6.44q-7.4,1.14-14.71,1.72t-14.71.57q-5.35,0-11.17-.21a91.75,91.75,0,0,1-11.48-1.14A59.46,59.46,0,0,1,465.57,360a27.42,27.42,0,0,1-8.57-4.87,19.13,19.13,0,0,1-5.43-7.59,23.26,23.26,0,0,1-1.18-11,113.5,113.5,0,0,1,2.75-15.39q2-7.95,4.56-15.82t5.58-15.39q3-7.52,6-14.1a24.79,24.79,0,0,1,5.27-7.3,35.83,35.83,0,0,1,10.22-6.8,70.55,70.55,0,0,1,16.44-5,126.85,126.85,0,0,1,23.91-1.93q6.92,0,15,.29a73.05,73.05,0,0,1,15.41,2.15,38,38,0,0,1,13,5.94A20.41,20.41,0,0,1,576.21,275v3.87A257.28,257.28,0,0,1,568.82,311.13Zm-36.33-1.43a195.41,195.41,0,0,0,6.92-24.41q.79-3.29-.79-5.23a9.25,9.25,0,0,0-4.33-2.86,26,26,0,0,0-6.05-1.22q-3.3-.28-5.66-.29-2.68,0-5.82.29a28.36,28.36,0,0,0-6.05,1.22,19.58,19.58,0,0,0-5.27,2.58,9.58,9.58,0,0,0-3.46,4.37q-4.72,11.17-8.81,23.05a243.35,243.35,0,0,0-6.92,24.06,8.84,8.84,0,0,0-.08,5.08,8.08,8.08,0,0,0,2.44,3.72,10.88,10.88,0,0,0,4.4,2.22,16.53,16.53,0,0,0,5.82.43q3,0,6.84-.22a41,41,0,0,0,7.39-1.07,18.35,18.35,0,0,0,6.21-2.72,8.45,8.45,0,0,0,3.46-5.15Q528.24,321.66,532.49,309.7Z"/><path class="cls-5" d="M498.83,364.54c-3.56,0-7.33-.07-11.19-.21a92.68,92.68,0,0,1-11.54-1.15,60.14,60.14,0,0,1-10.71-2.75,28.06,28.06,0,0,1-8.73-5,19.7,19.7,0,0,1-5.57-7.78,23.86,23.86,0,0,1-1.21-11.19A114.5,114.5,0,0,1,452.66,321c1.31-5.29,2.85-10.63,4.57-15.86s3.6-10.41,5.59-15.42,4-9.71,6-14.13a25.39,25.39,0,0,1,5.37-7.45,36.45,36.45,0,0,1,10.36-6.9,71.36,71.36,0,0,1,16.55-5,128,128,0,0,1,24-1.94c4.57,0,9.63.1,15,.29a73.84,73.84,0,0,1,15.52,2.16,38.65,38.65,0,0,1,13.14,6,21,21,0,0,1,7.9,12.09l0,.13v3.87a258.1,258.1,0,0,1-7.41,32.43h0a216.67,216.67,0,0,1-12.14,31.36,33.19,33.19,0,0,1-11.82,13.09,43.33,43.33,0,0,1-17,6.52c-4.93.76-9.89,1.34-14.74,1.72S503.73,364.54,498.83,364.54ZM525.1,255.29a127,127,0,0,0-23.81,1.92,70.37,70.37,0,0,0-16.32,5,35.48,35.48,0,0,0-10.08,6.7,24.41,24.41,0,0,0-5.17,7.15c-2,4.41-4,9.15-6,14.09s-3.86,10.16-5.57,15.36-3.25,10.52-4.55,15.79a113.5,113.5,0,0,0-2.74,15.33A22.88,22.88,0,0,0,452,347.32a18.71,18.71,0,0,0,5.29,7.39,27,27,0,0,0,8.42,4.78,59.21,59.21,0,0,0,10.53,2.7,91.6,91.6,0,0,0,11.42,1.14c3.85.14,7.6.21,11.15.21,4.87,0,9.81-.19,14.67-.57s9.77-1,14.67-1.71a42.32,42.32,0,0,0,16.63-6.37,32.19,32.19,0,0,0,11.46-12.69A215.6,215.6,0,0,0,568.34,311a258,258,0,0,0,7.38-32.23V275a20,20,0,0,0-7.5-11.47,37.67,37.67,0,0,0-12.8-5.86,72.92,72.92,0,0,0-15.31-2.13C534.7,255.38,529.66,255.29,525.1,255.29Zm-28,88a16.2,16.2,0,0,1-4.19-.53,11.42,11.42,0,0,1-4.6-2.33,8.61,8.61,0,0,1-2.59-4,9.38,9.38,0,0,1,.07-5.37A244.88,244.88,0,0,1,492.7,307c2.71-7.88,5.68-15.65,8.82-23.08a10.11,10.11,0,0,1,3.64-4.58,20.19,20.19,0,0,1,5.4-2.64,29,29,0,0,1,6.16-1.24c2.12-.19,4.09-.29,5.87-.29,1.57,0,3.48.1,5.71.29a26.6,26.6,0,0,1,6.17,1.24,9.79,9.79,0,0,1,4.55,3c1.15,1.41,1.45,3.32.88,5.66A196.7,196.7,0,0,1,533,309.87c-2.82,7.94-6.1,16-9.77,23.88a8.86,8.86,0,0,1-3.63,5.35,18.94,18.94,0,0,1-6.38,2.8A41.71,41.71,0,0,1,505.7,343c-2.57.14-4.88.22-6.87.22C498.24,343.26,497.65,343.29,497.07,343.29Zm25.51-67.1c-1.75,0-3.69.1-5.78.28a28,28,0,0,0-5.95,1.19,19.18,19.18,0,0,0-5.13,2.51,9.13,9.13,0,0,0-3.28,4.15c-3.13,7.42-6.09,15.16-8.8,23a243.93,243.93,0,0,0-6.9,24,8.42,8.42,0,0,0-.09,4.82,7.52,7.52,0,0,0,2.29,3.5,10.42,10.42,0,0,0,4.2,2.11,16.14,16.14,0,0,0,5.64.42c2,0,4.3-.07,6.86-.22a40.67,40.67,0,0,0,7.3-1.06,18,18,0,0,0,6-2.64,8,8,0,0,0,3.26-4.86c3.68-8,7-16,9.77-23.89h0a196,196,0,0,0,6.9-24.35c.49-2,.26-3.65-.69-4.81a8.8,8.8,0,0,0-4.1-2.71,25.62,25.62,0,0,0-5.94-1.19C526,276.29,524.12,276.19,522.58,276.19Z"/><path class="cls-4" d="M667.43,317.65l20.76-61.86h33.66L686.77,362.47H644.94l-16.51-74.17-24.54,74.17H569.13l35.23-106.68h35.23a21.11,21.11,0,0,1,5.66.79,19.14,19.14,0,0,1,5.19,2.29,17,17,0,0,1,4,3.51,11.36,11.36,0,0,1,2.28,4.58Z"/><path class="cls-5" d="M687.13,363h-42.6l-.09-.39-16.12-72.4L604.25,363H568.44L604,255.29h35.59a21.72,21.72,0,0,1,5.8.81,19.72,19.72,0,0,1,5.32,2.35,17.58,17.58,0,0,1,4.13,3.61,11.91,11.91,0,0,1,2.38,4.78l10.32,48.91,20.29-60.46h34.71Zm-41.8-1h41.07l34.74-105.68H688.55l-21.23,63.26-11.07-52.49a10.92,10.92,0,0,0-2.18-4.37,16.59,16.59,0,0,0-3.89-3.4,18.75,18.75,0,0,0-5.06-2.23,20.71,20.71,0,0,0-5.53-.77H604.72L569.82,362h33.71l25-75.55Z"/><path class="cls-5" d="M258,418.43l11.47-31.64h10.55a26.56,26.56,0,0,1,6.09.56,8.79,8.79,0,0,1,4.13,2.41,9,9,0,0,1,2.44,4.72,16.67,16.67,0,0,1-.13,6.48,23.14,23.14,0,0,1-3.38,8.41,20.67,20.67,0,0,1-5.76,5.92,16.13,16.13,0,0,1-6.11,2.66,48.85,48.85,0,0,1-7.73.48Zm12-7.09h2.13a11.16,11.16,0,0,0,5.14-.95,10,10,0,0,0,3.44-3.53,17.62,17.62,0,0,0,2.37-6.22q1.37-7-3.94-7H276.5Z"/><path class="cls-5" d="M302.36,419.13a10,10,0,0,1-7.65-2.91q-2.76-2.91-1.77-7.94a16.84,16.84,0,0,1,5.8-9.94,15.85,15.85,0,0,1,10.51-3.89q5.38,0,7.94,3a8.54,8.54,0,0,1,1.69,7.52,16.94,16.94,0,0,1-16.52,14.11Zm1.48-5.7q2.43,0,4-3.62a30.48,30.48,0,0,0,2.05-6q.72-3.71-2-3.71-2.39,0-4,3.7a30,30,0,0,0-2.1,6Q301.11,413.42,303.85,413.42Z"/><path class="cls-5" d="M335.61,409.35l6.73,1.74a16.37,16.37,0,0,1-6.21,6.29,14.69,14.69,0,0,1-6.72,1.75q-4.84,0-7.31-3.07t-1.53-7.9a18,18,0,0,1,5.53-9.72,14.68,14.68,0,0,1,10.43-4.22,9,9,0,0,1,6.84,2.61,7.15,7.15,0,0,1,1.7,6.71l-8.13.93q.74-3.8-1.83-3.8-2.2,0-3.74,3.11a22.37,22.37,0,0,0-2,5.43q-.67,3.44,1.92,3.44T335.61,409.35Z"/><path class="cls-5" d="M374.09,395l-8.5,23.41h-8.41l1.63-4.4q-3.79,5-8.77,5a5.46,5.46,0,0,1-4.38-1.62,4.52,4.52,0,0,1-.92-4,30,30,0,0,1,1.2-3.75l5.3-14.65h9l-4.86,13.39q-.67,1.88-.75,2.29-.34,1.74,1.26,1.74,3,0,5.15-5.84L365.21,395Z"/><path class="cls-5" d="M379,395h8l-1.31,3.62q3.44-4.31,8.06-4.31,4.41,0,5.1,4.31a9.35,9.35,0,0,1,7.81-4.2,5.81,5.81,0,0,1,4.63,1.75,5.29,5.29,0,0,1,.94,4.72,17.13,17.13,0,0,1-.66,2.29L406,418.43h-8.91l5.05-13.88a12.83,12.83,0,0,0,.48-1.65q.4-2-1.47-2a3,3,0,0,0-2.06.86,8.82,8.82,0,0,0-1.81,3.29l-4.87,13.42h-8.65l5.05-13.88a14.77,14.77,0,0,0,.56-1.81,1.56,1.56,0,0,0-.3-1.53,1.68,1.68,0,0,0-1.16-.46,4.15,4.15,0,0,0-1.73.54q-1.08.54-2,3.26l-5.06,13.88h-8.6Z"/><path class="cls-5" d="M438.58,408.44H422.44a14,14,0,0,0-.39,1.42,2.58,2.58,0,0,0,.52,2.4,3,3,0,0,0,2.32.86,5.24,5.24,0,0,0,4.61-3l7.63,1.28a16.55,16.55,0,0,1-6,5.57,16.28,16.28,0,0,1-8,2.13q-5.24,0-7.91-3T413.51,408a16.65,16.65,0,0,1,5.72-9.58,16.06,16.06,0,0,1,10.84-4q5.26,0,7.77,3.1t1.51,8.24A18,18,0,0,1,438.58,408.44Zm-7.56-4.5a8.37,8.37,0,0,0,.33-1.11,2.87,2.87,0,0,0-.35-2.18,2.18,2.18,0,0,0-2-.93,4.67,4.67,0,0,0-2.91,1.12,6.43,6.43,0,0,0-2.09,3.09Z"/><path class="cls-5" d="M447.06,395h8.15l-1.36,3.8a8.41,8.41,0,0,1,3.77-3.42,11.35,11.35,0,0,1,4.75-1.08,6.07,6.07,0,0,1,4.53,1.58,4.37,4.37,0,0,1,1,4.15,16.62,16.62,0,0,1-.7,2.39l-5.8,16h-8.91l5.11-14.07a14.89,14.89,0,0,0,.58-1.78q.39-2-1.7-2-2.8,0-4.16,3.76l-5.11,14.07h-8.69Z"/><path class="cls-5" d="M488.43,395l-2.19,6H482l-3,8.34a14.66,14.66,0,0,0-.51,1.55q-.34,1.72,1.85,1.72a11.09,11.09,0,0,0,2.26-.28l-2.21,6.1a24.52,24.52,0,0,1-4.9.53,8.6,8.6,0,0,1-4.09-.72,4.46,4.46,0,0,1-1.85-2,5.7,5.7,0,0,1-.19-3.48,28.21,28.21,0,0,1,1.08-3.38l3-8.34h-3.21l2.16-6h3.23l2.65-6.93,8.53-.16L484.19,395Z"/><path class="cls-5" d="M529.19,394.14l-8.54,2.06a2.72,2.72,0,0,0-1.3-2.22,5.15,5.15,0,0,0-2.9-.81q-3.13,0-3.54,2.09a1.45,1.45,0,0,0,.21,1.16,5.69,5.69,0,0,0,2.24,1.21l4.68,1.79a9.74,9.74,0,0,1,3.26,2.05,6.32,6.32,0,0,1,1.86,3,7.59,7.59,0,0,1,.07,3.44,12.48,12.48,0,0,1-5.31,7.92,17.85,17.85,0,0,1-10.66,3.13,16.91,16.91,0,0,1-8.95-2.18,9,9,0,0,1-4.28-6.65l9.48-1.78q.52,3.36,5.18,3.36a5.13,5.13,0,0,0,3-.71,2.61,2.61,0,0,0,1.18-1.61,1.44,1.44,0,0,0-.14-1,1.63,1.63,0,0,0-.59-.64q-.34-.2-3.33-1.38a43.82,43.82,0,0,1-5.61-2.54,5.88,5.88,0,0,1-2.38-2.79,7.24,7.24,0,0,1-.32-4.36,12.17,12.17,0,0,1,4.62-7.33q3.77-3,10.33-3a14.43,14.43,0,0,1,8.16,2.11A7.79,7.79,0,0,1,529.19,394.14Z"/><path class="cls-5" d="M536.7,419.13a10,10,0,0,1-7.65-2.91q-2.76-2.91-1.77-7.94a16.85,16.85,0,0,1,5.8-9.94,15.85,15.85,0,0,1,10.51-3.89q5.38,0,7.95,3a8.55,8.55,0,0,1,1.69,7.52,16.94,16.94,0,0,1-16.53,14.11Zm1.48-5.7q2.43,0,4-3.62a30.35,30.35,0,0,0,2.05-6q.73-3.71-2-3.71-2.39,0-4,3.7a29.94,29.94,0,0,0-2.09,6Q535.45,413.42,538.19,413.42Z"/><path class="cls-5" d="M572.6,386.79l-11.46,31.64h-8.91l11.47-31.64Z"/><path class="cls-5" d="M597.35,395l-8.5,23.41h-8.41l1.63-4.4q-3.79,5-8.78,5a5.46,5.46,0,0,1-4.38-1.62,4.52,4.52,0,0,1-.92-4,29.65,29.65,0,0,1,1.2-3.75L574.49,395h9l-4.86,13.39c-.45,1.25-.69,2-.75,2.29q-.34,1.74,1.26,1.74,3,0,5.15-5.84L588.47,395Z"/><path class="cls-5" d="M615.86,395l-2.19,6h-4.23l-3,8.34a14.68,14.68,0,0,0-.51,1.55q-.34,1.72,1.85,1.72a11.09,11.09,0,0,0,2.26-.28l-2.21,6.1a24.52,24.52,0,0,1-4.9.53,8.6,8.6,0,0,1-4.09-.72,4.46,4.46,0,0,1-1.85-2,5.7,5.7,0,0,1-.19-3.48,28.21,28.21,0,0,1,1.08-3.38l3-8.34h-3.21l2.16-6H603l2.65-6.93,8.53-.16L611.61,395Z"/><path class="cls-5" d="M628.46,395,620,418.43h-9.09L619.36,395Zm3.26-9-2.5,6.88h-9.09l2.5-6.88Z"/><path class="cls-5" d="M636.92,419.13a10,10,0,0,1-7.65-2.91q-2.76-2.91-1.77-7.94a16.85,16.85,0,0,1,5.8-9.94,15.85,15.85,0,0,1,10.51-3.89q5.38,0,7.95,3a8.55,8.55,0,0,1,1.69,7.52,16.94,16.94,0,0,1-16.53,14.11Zm1.48-5.7q2.43,0,4-3.62a30.35,30.35,0,0,0,2.05-6q.73-3.71-2-3.71-2.39,0-4,3.7a29.94,29.94,0,0,0-2.09,6Q635.67,413.42,638.41,413.42Z"/><path class="cls-5" d="M660.94,395h8.15l-1.36,3.8a8.41,8.41,0,0,1,3.77-3.42,11.35,11.35,0,0,1,4.75-1.08,6.07,6.07,0,0,1,4.53,1.58,4.37,4.37,0,0,1,1,4.15,16.63,16.63,0,0,1-.7,2.39l-5.8,16h-8.91l5.11-14.07a14.91,14.91,0,0,0,.58-1.78q.39-2-1.7-2-2.8,0-4.16,3.76l-5.11,14.07h-8.69Z"/><path class="cls-5" d="M707,400.44,699.86,402q-.34-2.27-3.89-2.27-2.48,0-2.75,1.39-.24,1.23,2.06,1.65a23.39,23.39,0,0,1,6.5,1.83,5.26,5.26,0,0,1,2.83,6,9.42,9.42,0,0,1-4.12,5.94q-3.43,2.42-9.45,2.42a14.54,14.54,0,0,1-7.46-1.75,6,6,0,0,1-3.13-5.25l7.53-1.07q.36,2.53,4.42,2.53a5.28,5.28,0,0,0,2.43-.45,1.64,1.64,0,0,0,1-1,.71.71,0,0,0-.35-.82,12.07,12.07,0,0,0-2.43-.73,33.42,33.42,0,0,1-5.52-1.66,5.41,5.41,0,0,1-2.5-2.33,5.26,5.26,0,0,1-.49-3.71,9.22,9.22,0,0,1,4-5.91,13.87,13.87,0,0,1,8.17-2.32,13.72,13.72,0,0,1,7.22,1.7A5.89,5.89,0,0,1,707,400.44Z"/></g></g></svg>